<?xml version="1.0" encoding="UTF-8" standalone="no"?>
<!DOCTYPE svg PUBLIC "-//W3C//DTD SVG 1.1//EN"
 "http://www.w3.org/Graphics/SVG/1.1/DTD/svg11.dtd">
<!-- Generated by graphviz version 2.46.1 (20210213.1702)
 -->
<!-- Title: dependencies Pages: 1 -->
<svg width="3100pt" height="428pt"
 viewBox="0.00 0.00 3100.00 428.00" xmlns="http://www.w3.org/2000/svg" xmlns:xlink="http://www.w3.org/1999/xlink">
<g id="graph0" class="graph" transform="scale(1 1) rotate(0) translate(4 424)">
<title>dependencies</title>
<polygon fill="white" stroke="transparent" points="-4,4 -4,-424 3096,-424 3096,4 -4,4"/>
<text text-anchor="start" x="1525.01" y="-42.4" font-family="sans-serif" font-weight="bold" font-size="14.00">Legend</text>
<polygon fill="#ffffb3" stroke="transparent" points="1312,-10 1312,-30 1332,-30 1332,-10 1312,-10"/>
<text text-anchor="start" x="1335.63" y="-15.4" font-family="sans-serif" font-size="14.00"> &#160;Declarations</text>
<polygon fill="#8dd3c7" stroke="transparent" points="1425,-10 1425,-30 1445,-30 1445,-10 1425,-10"/>
<text text-anchor="start" x="1448.73" y="-15.4" font-family="sans-serif" font-size="14.00"> &#160;Module</text>
<polygon fill="#80b1d3" stroke="transparent" points="1511,-10 1511,-30 1531,-30 1531,-10 1511,-10"/>
<text text-anchor="start" x="1534.78" y="-15.4" font-family="sans-serif" font-size="14.00"> &#160;Bootstrap</text>
<polygon fill="#fdb462" stroke="transparent" points="1608,-10 1608,-30 1628,-30 1628,-10 1608,-10"/>
<text text-anchor="start" x="1631.67" y="-15.4" font-family="sans-serif" font-size="14.00"> &#160;Providers</text>
<polygon fill="#fb8072" stroke="transparent" points="1704,-10 1704,-30 1724,-30 1724,-10 1704,-10"/>
<text text-anchor="start" x="1727.73" y="-15.4" font-family="sans-serif" font-size="14.00"> &#160;Exports</text>
<g id="clust1" class="cluster">
<title>cluster_AppModule</title>
<polygon fill="none" stroke="black" stroke-dasharray="1,5" points="290,-146 290,-412 1097,-412 1097,-146 290,-146"/>
</g>
<g id="clust3" class="cluster">
<title>cluster_AppModule_imports</title>
<polygon fill="none" stroke="black" points="436,-154 436,-347 1089,-347 1089,-154 436,-154"/>
</g>
<g id="clust6" class="cluster">
<title>cluster_AppModule_providers</title>
<polygon fill="none" stroke="black" points="298,-295 298,-347 428,-347 428,-295 298,-295"/>
</g>
<g id="clust7" class="cluster">
<title>cluster_AuthModule</title>
<polygon fill="none" stroke="black" stroke-dasharray="1,5" points="2299,-211 2299,-279 3084,-279 3084,-211 2299,-211"/>
</g>
<g id="clust10" class="cluster">
<title>cluster_AuthModule_exports</title>
<polygon fill="none" stroke="black" points="2970,-219 2970,-271 3076,-271 3076,-219 2970,-219"/>
</g>
<g id="clust12" class="cluster">
<title>cluster_AuthModule_providers</title>
<polygon fill="none" stroke="black" points="2307,-219 2307,-271 2962,-271 2962,-219 2307,-219"/>
</g>
<g id="clust13" class="cluster">
<title>cluster_CompanyModule</title>
<polygon fill="none" stroke="black" stroke-dasharray="1,5" points="347,-70 347,-138 803,-138 803,-70 347,-70"/>
</g>
<g id="clust16" class="cluster">
<title>cluster_CompanyModule_exports</title>
<polygon fill="none" stroke="black" points="355,-78 355,-130 487,-130 487,-78 355,-78"/>
</g>
<g id="clust18" class="cluster">
<title>cluster_CompanyModule_providers</title>
<polygon fill="none" stroke="black" points="495,-78 495,-130 795,-130 795,-78 495,-78"/>
</g>
<g id="clust19" class="cluster">
<title>cluster_NotificationsModule</title>
<polygon fill="none" stroke="black" stroke-dasharray="1,5" points="1105,-211 1105,-279 1475,-279 1475,-211 1105,-211"/>
</g>
<g id="clust22" class="cluster">
<title>cluster_NotificationsModule_exports</title>
<polygon fill="none" stroke="black" points="1317,-219 1317,-271 1467,-271 1467,-219 1317,-219"/>
</g>
<g id="clust24" class="cluster">
<title>cluster_NotificationsModule_providers</title>
<polygon fill="none" stroke="black" points="1113,-219 1113,-271 1309,-271 1309,-219 1113,-219"/>
</g>
<g id="clust25" class="cluster">
<title>cluster_RecognitionModule</title>
<polygon fill="none" stroke="black" stroke-dasharray="1,5" points="1483,-211 1483,-279 1843,-279 1843,-211 1483,-211"/>
</g>
<g id="clust28" class="cluster">
<title>cluster_RecognitionModule_exports</title>
<polygon fill="none" stroke="black" points="1689,-219 1689,-271 1835,-271 1835,-219 1689,-219"/>
</g>
<g id="clust30" class="cluster">
<title>cluster_RecognitionModule_providers</title>
<polygon fill="none" stroke="black" points="1491,-219 1491,-271 1681,-271 1681,-219 1491,-219"/>
</g>
<g id="clust31" class="cluster">
<title>cluster_RockstarModule</title>
<polygon fill="none" stroke="black" stroke-dasharray="1,5" points="1851,-211 1851,-279 2167,-279 2167,-211 1851,-211"/>
</g>
<g id="clust34" class="cluster">
<title>cluster_RockstarModule_exports</title>
<polygon fill="none" stroke="black" points="2031,-219 2031,-271 2159,-271 2159,-219 2031,-219"/>
</g>
<g id="clust36" class="cluster">
<title>cluster_RockstarModule_providers</title>
<polygon fill="none" stroke="black" points="1859,-219 1859,-271 2023,-271 2023,-219 1859,-219"/>
</g>
<g id="clust37" class="cluster">
<title>cluster_TagModule</title>
<polygon fill="none" stroke="black" stroke-dasharray="1,5" points="2175,-211 2175,-279 2291,-279 2291,-211 2175,-211"/>
</g>
<g id="clust40" class="cluster">
<title>cluster_TagModule_exports</title>
<polygon fill="none" stroke="black" points="2183,-219 2183,-271 2283,-271 2283,-219 2183,-219"/>
</g>
<g id="clust43" class="cluster">
<title>cluster_UsersModule</title>
<polygon fill="none" stroke="black" stroke-dasharray="1,5" points="8,-287 8,-355 282,-355 282,-287 8,-287"/>
</g>
<g id="clust46" class="cluster">
<title>cluster_UsersModule_exports</title>
<polygon fill="none" stroke="black" points="164,-295 164,-347 274,-347 274,-295 164,-295"/>
</g>
<g id="clust48" class="cluster">
<title>cluster_UsersModule_providers</title>
<polygon fill="none" stroke="black" points="16,-295 16,-347 156,-347 156,-295 16,-295"/>
</g>
<!-- AuthModule -->
<g id="node1" class="node">
<title>AuthModule</title>
<polygon fill="#8dd3c7" stroke="black" points="1080.55,-339 1077.55,-343 1056.55,-343 1053.55,-339 993.45,-339 993.45,-303 1080.55,-303 1080.55,-339"/>
<text text-anchor="middle" x="1037" y="-316.8" font-family="Times,serif" font-size="14.00">AuthModule</text>
</g>
<!-- AppModule -->
<g id="node8" class="node">
<title>AppModule</title>
<polygon fill="#8dd3c7" stroke="black" points="713.66,-404 710.66,-408 689.66,-408 686.66,-404 630.34,-404 630.34,-368 713.66,-368 713.66,-404"/>
<text text-anchor="middle" x="672" y="-381.8" font-family="Times,serif" font-size="14.00">AppModule</text>
</g>
<!-- AuthModule&#45;&gt;AppModule -->
<g id="edge1" class="edge">
<title>AuthModule&#45;&gt;AppModule</title>
<path fill="none" stroke="black" d="M1037,-339.01C1037,-361.49 1037,-397 1037,-397 1037,-397 723.87,-397 723.87,-397"/>
<polygon fill="black" stroke="black" points="723.87,-393.5 713.87,-397 723.87,-400.5 723.87,-393.5"/>
</g>
<!-- AuthService  -->
<g id="node10" class="node">
<title>AuthService </title>
<polygon fill="#fb8072" stroke="black" points="3067.98,-263 2978.02,-263 2978.02,-227 3067.98,-227 3067.98,-263"/>
<text text-anchor="middle" x="3023" y="-240.8" font-family="Times,serif" font-size="14.00">AuthService </text>
</g>
<!-- AuthModule&#45;&gt;AuthService  -->
<g id="edge10" class="edge">
<title>AuthModule&#45;&gt;AuthService </title>
<path fill="none" stroke="black" stroke-dasharray="5,2" d="M1080.8,-333C1372.53,-333 3023,-333 3023,-333 3023,-333 3023,-273.23 3023,-273.23"/>
<polygon fill="black" stroke="black" points="3026.5,-273.23 3023,-263.23 3019.5,-273.23 3026.5,-273.23"/>
</g>
<!-- CompanyModule -->
<g id="node2" class="node">
<title>CompanyModule</title>
<polygon fill="#8dd3c7" stroke="black" points="557.99,-198 554.99,-202 533.99,-202 530.99,-198 444.01,-198 444.01,-162 557.99,-162 557.99,-198"/>
<text text-anchor="middle" x="501" y="-175.8" font-family="Times,serif" font-size="14.00">CompanyModule</text>
</g>
<!-- UsersModule -->
<g id="node7" class="node">
<title>UsersModule</title>
<polygon fill="#8dd3c7" stroke="black" points="812.92,-263 809.92,-267 788.92,-267 785.92,-263 721.08,-263 721.08,-227 812.92,-227 812.92,-263"/>
<text text-anchor="middle" x="767" y="-240.8" font-family="Times,serif" font-size="14.00">UsersModule</text>
</g>
<!-- CompanyModule&#45;&gt;UsersModule -->
<g id="edge26" class="edge">
<title>CompanyModule&#45;&gt;UsersModule</title>
<path fill="none" stroke="black" d="M520,-198.01C520,-214.05 520,-235 520,-235 520,-235 711.12,-235 711.12,-235"/>
<polygon fill="black" stroke="black" points="711.12,-238.5 721.12,-235 711.12,-231.5 711.12,-238.5"/>
</g>
<!-- CompanyModule&#45;&gt;AppModule -->
<g id="edge2" class="edge">
<title>CompanyModule&#45;&gt;AppModule</title>
<path fill="none" stroke="black" d="M482,-198.28C482,-248.7 482,-386 482,-386 482,-386 620.3,-386 620.3,-386"/>
<polygon fill="black" stroke="black" points="620.3,-389.5 630.3,-386 620.3,-382.5 620.3,-389.5"/>
</g>
<!-- CompanyService  -->
<g id="node15" class="node">
<title>CompanyService </title>
<polygon fill="#fb8072" stroke="black" points="478.92,-122 363.08,-122 363.08,-86 478.92,-86 478.92,-122"/>
<text text-anchor="middle" x="421" y="-99.8" font-family="Times,serif" font-size="14.00">CompanyService </text>
</g>
<!-- CompanyModule&#45;&gt;CompanyService  -->
<g id="edge15" class="edge">
<title>CompanyModule&#45;&gt;CompanyService </title>
<path fill="none" stroke="black" stroke-dasharray="5,2" d="M461.48,-161.99C461.48,-161.99 461.48,-132.15 461.48,-132.15"/>
<polygon fill="black" stroke="black" points="464.98,-132.15 461.48,-122.15 457.98,-132.15 464.98,-132.15"/>
</g>
<!-- NotificationsModule -->
<g id="node3" class="node">
<title>NotificationsModule</title>
<polygon fill="#8dd3c7" stroke="black" points="708.14,-198 705.14,-202 684.14,-202 681.14,-198 575.86,-198 575.86,-162 708.14,-162 708.14,-198"/>
<text text-anchor="middle" x="642" y="-175.8" font-family="Times,serif" font-size="14.00">NotificationsModule</text>
</g>
<!-- NotificationsModule&#45;&gt;AppModule -->
<g id="edge3" class="edge">
<title>NotificationsModule&#45;&gt;AppModule</title>
<path fill="none" stroke="black" d="M682.27,-198.28C682.27,-198.28 682.27,-357.76 682.27,-357.76"/>
<polygon fill="black" stroke="black" points="678.77,-357.76 682.27,-367.76 685.77,-357.76 678.77,-357.76"/>
</g>
<!-- NotificationsService  -->
<g id="node18" class="node">
<title>NotificationsService </title>
<polygon fill="#fb8072" stroke="black" points="1459.07,-263 1324.93,-263 1324.93,-227 1459.07,-227 1459.07,-263"/>
<text text-anchor="middle" x="1392" y="-240.8" font-family="Times,serif" font-size="14.00">NotificationsService </text>
</g>
<!-- NotificationsModule&#45;&gt;NotificationsService  -->
<g id="edge18" class="edge">
<title>NotificationsModule&#45;&gt;NotificationsService </title>
<path fill="none" stroke="black" stroke-dasharray="5,2" d="M643.2,-198.13C643.2,-208.31 643.2,-219 643.2,-219 643.2,-219 1392,-219 1392,-219 1392,-219 1392,-219.79 1392,-219.79"/>
<polygon fill="black" stroke="black" points="1388.5,-216.94 1392,-226.94 1395.5,-216.94 1388.5,-216.94"/>
</g>
<!-- RecognitionModule -->
<g id="node4" class="node">
<title>RecognitionModule</title>
<polygon fill="#8dd3c7" stroke="black" points="853.99,-198 850.99,-202 829.99,-202 826.99,-198 726.01,-198 726.01,-162 853.99,-162 853.99,-198"/>
<text text-anchor="middle" x="790" y="-175.8" font-family="Times,serif" font-size="14.00">RecognitionModule</text>
</g>
<!-- RecognitionModule&#45;&gt;AppModule -->
<g id="edge4" class="edge">
<title>RecognitionModule&#45;&gt;AppModule</title>
<path fill="none" stroke="black" d="M843.67,-198.09C843.67,-246.61 843.67,-376 843.67,-376 843.67,-376 724,-376 724,-376"/>
<polygon fill="black" stroke="black" points="724,-372.5 714,-376 724,-379.5 724,-372.5"/>
</g>
<!-- RecognitionService  -->
<g id="node20" class="node">
<title>RecognitionService </title>
<polygon fill="#fb8072" stroke="black" points="1826.92,-263 1697.08,-263 1697.08,-227 1826.92,-227 1826.92,-263"/>
<text text-anchor="middle" x="1762" y="-240.8" font-family="Times,serif" font-size="14.00">RecognitionService </text>
</g>
<!-- RecognitionModule&#45;&gt;RecognitionService  -->
<g id="edge20" class="edge">
<title>RecognitionModule&#45;&gt;RecognitionService </title>
<path fill="none" stroke="black" stroke-dasharray="5,2" d="M823.03,-198.03C823.03,-204.85 823.03,-211 823.03,-211 823.03,-211 1762,-211 1762,-211 1762,-211 1762,-216.81 1762,-216.81"/>
<polygon fill="black" stroke="black" points="1758.5,-216.81 1762,-226.81 1765.5,-216.81 1758.5,-216.81"/>
</g>
<!-- RockstarModule -->
<g id="node5" class="node">
<title>RockstarModule</title>
<polygon fill="#8dd3c7" stroke="black" points="981.81,-198 978.81,-202 957.81,-202 954.81,-198 872.19,-198 872.19,-162 981.81,-162 981.81,-198"/>
<text text-anchor="middle" x="927" y="-175.8" font-family="Times,serif" font-size="14.00">RockstarModule</text>
</g>
<!-- RockstarModule&#45;&gt;AppModule -->
<g id="edge5" class="edge">
<title>RockstarModule&#45;&gt;AppModule</title>
<path fill="none" stroke="black" d="M954.33,-198.01C954.33,-247.7 954.33,-383 954.33,-383 954.33,-383 723.66,-383 723.66,-383"/>
<polygon fill="black" stroke="black" points="723.66,-379.5 713.66,-383 723.66,-386.5 723.66,-379.5"/>
</g>
<!-- RockstarService  -->
<g id="node22" class="node">
<title>RockstarService </title>
<polygon fill="#fb8072" stroke="black" points="2150.74,-263 2039.26,-263 2039.26,-227 2150.74,-227 2150.74,-263"/>
<text text-anchor="middle" x="2095" y="-240.8" font-family="Times,serif" font-size="14.00">RockstarService </text>
</g>
<!-- RockstarModule&#45;&gt;RockstarService  -->
<g id="edge22" class="edge">
<title>RockstarModule&#45;&gt;RockstarService </title>
<path fill="none" stroke="black" stroke-dasharray="5,2" d="M899.67,-198.12C899.67,-200.97 899.67,-203 899.67,-203 899.67,-203 2095,-203 2095,-203 2095,-203 2095,-216.94 2095,-216.94"/>
<polygon fill="black" stroke="black" points="2091.5,-216.94 2095,-226.94 2098.5,-216.94 2091.5,-216.94"/>
</g>
<!-- TagModule -->
<g id="node6" class="node">
<title>TagModule</title>
<polygon fill="#8dd3c7" stroke="black" points="1080.82,-198 1077.82,-202 1056.82,-202 1053.82,-198 999.18,-198 999.18,-162 1080.82,-162 1080.82,-198"/>
<text text-anchor="middle" x="1040" y="-175.8" font-family="Times,serif" font-size="14.00">TagModule</text>
</g>
<!-- TagModule&#45;&gt;AppModule -->
<g id="edge6" class="edge">
<title>TagModule&#45;&gt;AppModule</title>
<path fill="none" stroke="black" d="M999.11,-180C992.32,-180 987.44,-180 987.44,-180 987.44,-180 987.44,-390 987.44,-390 987.44,-390 723.89,-390 723.89,-390"/>
<polygon fill="black" stroke="black" points="723.89,-386.5 713.89,-390 723.89,-393.5 723.89,-386.5"/>
</g>
<!-- TagService  -->
<g id="node24" class="node">
<title>TagService </title>
<polygon fill="#fb8072" stroke="black" points="2274.75,-263 2191.25,-263 2191.25,-227 2274.75,-227 2274.75,-263"/>
<text text-anchor="middle" x="2233" y="-240.8" font-family="Times,serif" font-size="14.00">TagService </text>
</g>
<!-- TagModule&#45;&gt;TagService  -->
<g id="edge24" class="edge">
<title>TagModule&#45;&gt;TagService </title>
<path fill="none" stroke="black" stroke-dasharray="5,2" d="M1080.72,-180C1289.81,-180 2233,-180 2233,-180 2233,-180 2233,-216.89 2233,-216.89"/>
<polygon fill="black" stroke="black" points="2229.5,-216.89 2233,-226.89 2236.5,-216.89 2229.5,-216.89"/>
</g>
<!-- UsersModule&#45;&gt;AuthModule -->
<g id="edge9" class="edge">
<title>UsersModule&#45;&gt;AuthModule</title>
<path fill="none" stroke="black" d="M767,-263.2C767,-287.36 767,-327 767,-327 767,-327 983.32,-327 983.32,-327"/>
<polygon fill="black" stroke="black" points="983.32,-330.5 993.32,-327 983.32,-323.5 983.32,-330.5"/>
</g>
<!-- UsersModule&#45;&gt;AppModule -->
<g id="edge7" class="edge">
<title>UsersModule&#45;&gt;AppModule</title>
<path fill="none" stroke="black" d="M721.18,-256C707.13,-256 695.3,-256 695.3,-256 695.3,-256 695.3,-357.92 695.3,-357.92"/>
<polygon fill="black" stroke="black" points="691.8,-357.92 695.3,-367.92 698.8,-357.92 691.8,-357.92"/>
</g>
<!-- UsersService  -->
<g id="node25" class="node">
<title>UsersService </title>
<polygon fill="#fb8072" stroke="black" points="265.85,-339 172.15,-339 172.15,-303 265.85,-303 265.85,-339"/>
<text text-anchor="middle" x="219" y="-316.8" font-family="Times,serif" font-size="14.00">UsersService </text>
</g>
<!-- UsersModule&#45;&gt;UsersService  -->
<g id="edge27" class="edge">
<title>UsersModule&#45;&gt;UsersService </title>
<path fill="none" stroke="black" stroke-dasharray="5,2" d="M721.22,-249C589.51,-249 219,-249 219,-249 219,-249 219,-292.83 219,-292.83"/>
<polygon fill="black" stroke="black" points="215.5,-292.83 219,-302.83 222.5,-292.83 215.5,-292.83"/>
</g>
<!-- AppService -->
<g id="node9" class="node">
<title>AppService</title>
<ellipse fill="#fdb462" stroke="black" cx="363" cy="-321" rx="56.74" ry="18"/>
<text text-anchor="middle" x="363" y="-316.8" font-family="Times,serif" font-size="14.00">AppService</text>
</g>
<!-- AppService&#45;&gt;AppModule -->
<g id="edge8" class="edge">
<title>AppService&#45;&gt;AppModule</title>
<path fill="none" stroke="black" d="M416.69,-315C504.52,-315 669.25,-315 669.25,-315 669.25,-315 669.25,-357.72 669.25,-357.72"/>
<polygon fill="black" stroke="black" points="665.75,-357.72 669.25,-367.72 672.75,-357.72 665.75,-357.72"/>
</g>
<!-- AuthService -->
<g id="node11" class="node">
<title>AuthService</title>
<ellipse fill="#fdb462" stroke="black" cx="2895" cy="-245" rx="59.11" ry="18"/>
<text text-anchor="middle" x="2895" y="-240.8" font-family="Times,serif" font-size="14.00">AuthService</text>
</g>
<!-- AuthService&#45;&gt;AuthModule -->
<g id="edge11" class="edge">
<title>AuthService&#45;&gt;AuthModule</title>
<path fill="none" stroke="black" d="M2895,-263.2C2895,-287.36 2895,-327 2895,-327 2895,-327 1090.64,-327 1090.64,-327"/>
<polygon fill="black" stroke="black" points="1090.64,-323.5 1080.64,-327 1090.64,-330.5 1090.64,-323.5"/>
</g>
<!-- JwtRefreshTokenStrategy -->
<g id="node12" class="node">
<title>JwtRefreshTokenStrategy</title>
<ellipse fill="#fdb462" stroke="black" cx="2706" cy="-245" rx="111.15" ry="18"/>
<text text-anchor="middle" x="2706" y="-240.8" font-family="Times,serif" font-size="14.00">JwtRefreshTokenStrategy</text>
</g>
<!-- JwtRefreshTokenStrategy&#45;&gt;AuthModule -->
<g id="edge12" class="edge">
<title>JwtRefreshTokenStrategy&#45;&gt;AuthModule</title>
<path fill="none" stroke="black" d="M2706,-263.01C2706,-285.49 2706,-321 2706,-321 2706,-321 1090.78,-321 1090.78,-321"/>
<polygon fill="black" stroke="black" points="1090.78,-317.5 1080.78,-321 1090.78,-324.5 1090.78,-317.5"/>
</g>
<!-- JwtStrategy -->
<g id="node13" class="node">
<title>JwtStrategy</title>
<ellipse fill="#fdb462" stroke="black" cx="2520" cy="-245" rx="56.76" ry="18"/>
<text text-anchor="middle" x="2520" y="-240.8" font-family="Times,serif" font-size="14.00">JwtStrategy</text>
</g>
<!-- JwtStrategy&#45;&gt;AuthModule -->
<g id="edge13" class="edge">
<title>JwtStrategy&#45;&gt;AuthModule</title>
<path fill="none" stroke="black" d="M2520,-263.03C2520,-283.77 2520,-315 2520,-315 2520,-315 1090.58,-315 1090.58,-315"/>
<polygon fill="black" stroke="black" points="1090.58,-311.5 1080.58,-315 1090.58,-318.5 1090.58,-311.5"/>
</g>
<!-- LocalStrategy -->
<g id="node14" class="node">
<title>LocalStrategy</title>
<ellipse fill="#fdb462" stroke="black" cx="2380" cy="-245" rx="65.41" ry="18"/>
<text text-anchor="middle" x="2380" y="-240.8" font-family="Times,serif" font-size="14.00">LocalStrategy</text>
</g>
<!-- LocalStrategy&#45;&gt;AuthModule -->
<g id="edge14" class="edge">
<title>LocalStrategy&#45;&gt;AuthModule</title>
<path fill="none" stroke="black" d="M2380,-263.17C2380,-282.09 2380,-309 2380,-309 2380,-309 1090.92,-309 1090.92,-309"/>
<polygon fill="black" stroke="black" points="1090.92,-305.5 1080.92,-309 1090.92,-312.5 1090.92,-305.5"/>
</g>
<!-- CompanyService -->
<g id="node16" class="node">
<title>CompanyService</title>
<ellipse fill="#fdb462" stroke="black" cx="581" cy="-104" rx="77.59" ry="18"/>
<text text-anchor="middle" x="581" y="-99.8" font-family="Times,serif" font-size="14.00">CompanyService</text>
</g>
<!-- CompanyService&#45;&gt;CompanyModule -->
<g id="edge16" class="edge">
<title>CompanyService&#45;&gt;CompanyModule</title>
<path fill="none" stroke="black" d="M521.64,-115.88C521.64,-115.88 521.64,-151.99 521.64,-151.99"/>
<polygon fill="black" stroke="black" points="518.14,-151.99 521.64,-161.99 525.14,-151.99 518.14,-151.99"/>
</g>
<!-- TagService -->
<g id="node17" class="node">
<title>TagService</title>
<ellipse fill="#fdb462" stroke="black" cx="732" cy="-104" rx="55.01" ry="18"/>
<text text-anchor="middle" x="732" y="-99.8" font-family="Times,serif" font-size="14.00">TagService</text>
</g>
<!-- TagService&#45;&gt;CompanyModule -->
<g id="edge17" class="edge">
<title>TagService&#45;&gt;CompanyModule</title>
<path fill="none" stroke="black" d="M692.66,-116.87C692.66,-127.89 692.66,-142 692.66,-142 692.66,-142 539.82,-142 539.82,-142 539.82,-142 539.82,-151.89 539.82,-151.89"/>
<polygon fill="black" stroke="black" points="536.32,-151.89 539.82,-161.89 543.32,-151.89 536.32,-151.89"/>
</g>
<!-- TagService&#45;&gt;TagModule -->
<g id="edge25" class="edge">
<title>TagService&#45;&gt;TagModule</title>
<path fill="none" stroke="black" d="M787.06,-104C875.66,-104 1040,-104 1040,-104 1040,-104 1040,-151.99 1040,-151.99"/>
<polygon fill="black" stroke="black" points="1036.5,-151.99 1040,-161.99 1043.5,-151.99 1036.5,-151.99"/>
</g>
<!-- NotificationsService -->
<g id="node19" class="node">
<title>NotificationsService</title>
<ellipse fill="#fdb462" stroke="black" cx="1211" cy="-245" rx="90.32" ry="18"/>
<text text-anchor="middle" x="1211" y="-240.8" font-family="Times,serif" font-size="14.00">NotificationsService</text>
</g>
<!-- NotificationsService&#45;&gt;NotificationsModule -->
<g id="edge19" class="edge">
<title>NotificationsService&#45;&gt;NotificationsModule</title>
<path fill="none" stroke="black" d="M1211,-226.83C1211,-224.55 1211,-223 1211,-223 1211,-223 656.22,-223 656.22,-223 656.22,-223 656.22,-208.49 656.22,-208.49"/>
<polygon fill="black" stroke="black" points="659.72,-208.49 656.22,-198.49 652.72,-208.49 659.72,-208.49"/>
</g>
<!-- RecognitionService -->
<g id="node21" class="node">
<title>RecognitionService</title>
<ellipse fill="#fdb462" stroke="black" cx="1586" cy="-245" rx="87.4" ry="18"/>
<text text-anchor="middle" x="1586" y="-240.8" font-family="Times,serif" font-size="14.00">RecognitionService</text>
</g>
<!-- RecognitionService&#45;&gt;RecognitionModule -->
<g id="edge21" class="edge">
<title>RecognitionService&#45;&gt;RecognitionModule</title>
<path fill="none" stroke="black" d="M1586,-226.86C1586,-220.54 1586,-215 1586,-215 1586,-215 833.35,-215 833.35,-215 833.35,-215 833.35,-208.32 833.35,-208.32"/>
<polygon fill="black" stroke="black" points="836.85,-208.32 833.35,-198.32 829.85,-208.32 836.85,-208.32"/>
</g>
<!-- RockstarService -->
<g id="node23" class="node">
<title>RockstarService</title>
<ellipse fill="#fdb462" stroke="black" cx="1941" cy="-245" rx="74.13" ry="18"/>
<text text-anchor="middle" x="1941" y="-240.8" font-family="Times,serif" font-size="14.00">RockstarService</text>
</g>
<!-- RockstarService&#45;&gt;RockstarModule -->
<g id="edge23" class="edge">
<title>RockstarService&#45;&gt;RockstarModule</title>
<path fill="none" stroke="black" d="M1941,-226.89C1941,-217.1 1941,-207 1941,-207 1941,-207 927,-207 927,-207 927,-207 927,-206.12 927,-206.12"/>
<polygon fill="black" stroke="black" points="930.5,-208.16 927,-198.16 923.5,-208.16 930.5,-208.16"/>
</g>
<!-- UsersService -->
<g id="node26" class="node">
<title>UsersService</title>
<ellipse fill="#fdb462" stroke="black" cx="86" cy="-321" rx="61.95" ry="18"/>
<text text-anchor="middle" x="86" y="-316.8" font-family="Times,serif" font-size="14.00">UsersService</text>
</g>
<!-- UsersService&#45;&gt;UsersModule -->
<g id="edge28" class="edge">
<title>UsersService&#45;&gt;UsersModule</title>
<path fill="none" stroke="black" d="M86,-302.68C86,-279.34 86,-242 86,-242 86,-242 711.26,-242 711.26,-242"/>
<polygon fill="black" stroke="black" points="711.26,-245.5 721.26,-242 711.26,-238.5 711.26,-245.5"/>
</g>
</g>
</svg>
