<?xml version="1.0" encoding="UTF-8" standalone="no"?>
<!DOCTYPE svg PUBLIC "-//W3C//DTD SVG 1.1//EN"
 "http://www.w3.org/Graphics/SVG/1.1/DTD/svg11.dtd">
<!-- Generated by graphviz version 2.46.1 (20210213.1702)
 -->
<!-- Title: dependencies Pages: 1 -->
<svg width="1046pt" height="211pt"
 viewBox="0.00 0.00 1046.00 211.00" xmlns="http://www.w3.org/2000/svg" xmlns:xlink="http://www.w3.org/1999/xlink">
<g id="graph0" class="graph" transform="scale(1 1) rotate(0) translate(4 207)">
<title>dependencies</title>
<polygon fill="white" stroke="transparent" points="-4,4 -4,-207 1042,-207 1042,4 -4,4"/>
<text text-anchor="start" x="498.01" y="-42.4" font-family="sans-serif" font-weight="bold" font-size="14.00">Legend</text>
<polygon fill="#ffffb3" stroke="transparent" points="285,-10 285,-30 305,-30 305,-10 285,-10"/>
<text text-anchor="start" x="308.63" y="-15.4" font-family="sans-serif" font-size="14.00"> &#160;Declarations</text>
<polygon fill="#8dd3c7" stroke="transparent" points="398,-10 398,-30 418,-30 418,-10 398,-10"/>
<text text-anchor="start" x="421.73" y="-15.4" font-family="sans-serif" font-size="14.00"> &#160;Module</text>
<polygon fill="#80b1d3" stroke="transparent" points="484,-10 484,-30 504,-30 504,-10 484,-10"/>
<text text-anchor="start" x="507.78" y="-15.4" font-family="sans-serif" font-size="14.00"> &#160;Bootstrap</text>
<polygon fill="#fdb462" stroke="transparent" points="581,-10 581,-30 601,-30 601,-10 581,-10"/>
<text text-anchor="start" x="604.67" y="-15.4" font-family="sans-serif" font-size="14.00"> &#160;Providers</text>
<polygon fill="#fb8072" stroke="transparent" points="677,-10 677,-30 697,-30 697,-10 677,-10"/>
<text text-anchor="start" x="700.73" y="-15.4" font-family="sans-serif" font-size="14.00"> &#160;Exports</text>
<g id="clust1" class="cluster">
<title>cluster_AppModule</title>
<polygon fill="none" stroke="black" stroke-dasharray="1,5" points="8,-70 8,-195 1030,-195 1030,-70 8,-70"/>
</g>
<g id="clust6" class="cluster">
<title>cluster_AppModule_providers</title>
<polygon fill="none" stroke="black" points="892,-78 892,-130 1022,-130 1022,-78 892,-78"/>
</g>
<g id="clust3" class="cluster">
<title>cluster_AppModule_imports</title>
<polygon fill="none" stroke="black" points="16,-78 16,-130 884,-130 884,-78 16,-78"/>
</g>
<!-- AuthModule -->
<g id="node1" class="node">
<title>AuthModule</title>
<polygon fill="#8dd3c7" stroke="black" points="875.55,-122 872.55,-126 851.55,-126 848.55,-122 788.45,-122 788.45,-86 875.55,-86 875.55,-122"/>
<text text-anchor="middle" x="832" y="-99.8" font-family="Times,serif" font-size="14.00">AuthModule</text>
</g>
<!-- AppModule -->
<g id="node8" class="node">
<title>AppModule</title>
<polygon fill="#8dd3c7" stroke="black" points="539.66,-187 536.66,-191 515.66,-191 512.66,-187 456.34,-187 456.34,-151 539.66,-151 539.66,-187"/>
<text text-anchor="middle" x="498" y="-164.8" font-family="Times,serif" font-size="14.00">AppModule</text>
</g>
<!-- AuthModule&#45;&gt;AppModule -->
<g id="edge1" class="edge">
<title>AuthModule&#45;&gt;AppModule</title>
<path fill="none" stroke="black" d="M832,-122.11C832,-141.34 832,-169 832,-169 832,-169 549.96,-169 549.96,-169"/>
<polygon fill="black" stroke="black" points="549.96,-165.5 539.96,-169 549.96,-172.5 549.96,-165.5"/>
</g>
<!-- CompanyModule -->
<g id="node2" class="node">
<title>CompanyModule</title>
<polygon fill="#8dd3c7" stroke="black" points="769.99,-122 766.99,-126 745.99,-126 742.99,-122 656.01,-122 656.01,-86 769.99,-86 769.99,-122"/>
<text text-anchor="middle" x="713" y="-99.8" font-family="Times,serif" font-size="14.00">CompanyModule</text>
</g>
<!-- CompanyModule&#45;&gt;AppModule -->
<g id="edge2" class="edge">
<title>CompanyModule&#45;&gt;AppModule</title>
<path fill="none" stroke="black" d="M713,-122.03C713,-138.4 713,-160 713,-160 713,-160 549.71,-160 549.71,-160"/>
<polygon fill="black" stroke="black" points="549.71,-156.5 539.71,-160 549.71,-163.5 549.71,-156.5"/>
</g>
<!-- NotificationsModule -->
<g id="node3" class="node">
<title>NotificationsModule</title>
<polygon fill="#8dd3c7" stroke="black" points="638.14,-122 635.14,-126 614.14,-126 611.14,-122 505.86,-122 505.86,-86 638.14,-86 638.14,-122"/>
<text text-anchor="middle" x="572" y="-99.8" font-family="Times,serif" font-size="14.00">NotificationsModule</text>
</g>
<!-- NotificationsModule&#45;&gt;AppModule -->
<g id="edge3" class="edge">
<title>NotificationsModule&#45;&gt;AppModule</title>
<path fill="none" stroke="black" d="M522.75,-122.11C522.75,-122.11 522.75,-140.99 522.75,-140.99"/>
<polygon fill="black" stroke="black" points="519.25,-140.99 522.75,-150.99 526.25,-140.99 519.25,-140.99"/>
</g>
<!-- RecognitionModule -->
<g id="node4" class="node">
<title>RecognitionModule</title>
<polygon fill="#8dd3c7" stroke="black" points="487.99,-122 484.99,-126 463.99,-126 460.99,-122 360.01,-122 360.01,-86 487.99,-86 487.99,-122"/>
<text text-anchor="middle" x="424" y="-99.8" font-family="Times,serif" font-size="14.00">RecognitionModule</text>
</g>
<!-- RecognitionModule&#45;&gt;AppModule -->
<g id="edge4" class="edge">
<title>RecognitionModule&#45;&gt;AppModule</title>
<path fill="none" stroke="black" d="M472.08,-122.11C472.08,-122.11 472.08,-140.99 472.08,-140.99"/>
<polygon fill="black" stroke="black" points="468.58,-140.99 472.08,-150.99 475.58,-140.99 468.58,-140.99"/>
</g>
<!-- RockstarModule -->
<g id="node5" class="node">
<title>RockstarModule</title>
<polygon fill="#8dd3c7" stroke="black" points="341.81,-122 338.81,-126 317.81,-126 314.81,-122 232.19,-122 232.19,-86 341.81,-86 341.81,-122"/>
<text text-anchor="middle" x="287" y="-99.8" font-family="Times,serif" font-size="14.00">RockstarModule</text>
</g>
<!-- RockstarModule&#45;&gt;AppModule -->
<g id="edge5" class="edge">
<title>RockstarModule&#45;&gt;AppModule</title>
<path fill="none" stroke="black" d="M287,-122.03C287,-138.4 287,-160 287,-160 287,-160 446.31,-160 446.31,-160"/>
<polygon fill="black" stroke="black" points="446.31,-163.5 456.31,-160 446.31,-156.5 446.31,-163.5"/>
</g>
<!-- TagModule -->
<g id="node6" class="node">
<title>TagModule</title>
<polygon fill="#8dd3c7" stroke="black" points="214.82,-122 211.82,-126 190.82,-126 187.82,-122 133.18,-122 133.18,-86 214.82,-86 214.82,-122"/>
<text text-anchor="middle" x="174" y="-99.8" font-family="Times,serif" font-size="14.00">TagModule</text>
</g>
<!-- TagModule&#45;&gt;AppModule -->
<g id="edge6" class="edge">
<title>TagModule&#45;&gt;AppModule</title>
<path fill="none" stroke="black" d="M174,-122.11C174,-141.34 174,-169 174,-169 174,-169 446.31,-169 446.31,-169"/>
<polygon fill="black" stroke="black" points="446.31,-172.5 456.31,-169 446.31,-165.5 446.31,-172.5"/>
</g>
<!-- UsersModule -->
<g id="node7" class="node">
<title>UsersModule</title>
<polygon fill="#8dd3c7" stroke="black" points="115.92,-122 112.92,-126 91.92,-126 88.92,-122 24.08,-122 24.08,-86 115.92,-86 115.92,-122"/>
<text text-anchor="middle" x="70" y="-99.8" font-family="Times,serif" font-size="14.00">UsersModule</text>
</g>
<!-- UsersModule&#45;&gt;AppModule -->
<g id="edge7" class="edge">
<title>UsersModule&#45;&gt;AppModule</title>
<path fill="none" stroke="black" d="M70,-122.29C70,-144.21 70,-178 70,-178 70,-178 446.18,-178 446.18,-178"/>
<polygon fill="black" stroke="black" points="446.18,-181.5 456.18,-178 446.18,-174.5 446.18,-181.5"/>
</g>
<!-- AppService -->
<g id="node9" class="node">
<title>AppService</title>
<ellipse fill="#fdb462" stroke="black" cx="957" cy="-104" rx="56.74" ry="18"/>
<text text-anchor="middle" x="957" y="-99.8" font-family="Times,serif" font-size="14.00">AppService</text>
</g>
<!-- AppService&#45;&gt;AppModule -->
<g id="edge8" class="edge">
<title>AppService&#45;&gt;AppModule</title>
<path fill="none" stroke="black" d="M957,-122.29C957,-144.21 957,-178 957,-178 957,-178 549.95,-178 549.95,-178"/>
<polygon fill="black" stroke="black" points="549.95,-174.5 539.95,-178 549.95,-181.5 549.95,-174.5"/>
</g>
</g>
</svg>
