<?xml version="1.0" encoding="UTF-8" standalone="no"?>
<!DOCTYPE svg PUBLIC "-//W3C//DTD SVG 1.1//EN"
 "http://www.w3.org/Graphics/SVG/1.1/DTD/svg11.dtd">
<!-- Generated by graphviz version 2.46.1 (20210213.1702)
 -->
<!-- Title: dependencies Pages: 1 -->
<svg width="811pt" height="284pt"
 viewBox="0.00 0.00 811.00 284.00" xmlns="http://www.w3.org/2000/svg" xmlns:xlink="http://www.w3.org/1999/xlink">
<g id="graph0" class="graph" transform="scale(1 1) rotate(0) translate(4 280)">
<title>dependencies</title>
<polygon fill="white" stroke="transparent" points="-4,4 -4,-280 807,-280 807,4 -4,4"/>
<text text-anchor="start" x="380.51" y="-42.4" font-family="sans-serif" font-weight="bold" font-size="14.00">Legend</text>
<polygon fill="#ffffb3" stroke="transparent" points="167.5,-10 167.5,-30 187.5,-30 187.5,-10 167.5,-10"/>
<text text-anchor="start" x="191.13" y="-15.4" font-family="sans-serif" font-size="14.00"> &#160;Declarations</text>
<polygon fill="#8dd3c7" stroke="transparent" points="280.5,-10 280.5,-30 300.5,-30 300.5,-10 280.5,-10"/>
<text text-anchor="start" x="304.23" y="-15.4" font-family="sans-serif" font-size="14.00"> &#160;Module</text>
<polygon fill="#80b1d3" stroke="transparent" points="366.5,-10 366.5,-30 386.5,-30 386.5,-10 366.5,-10"/>
<text text-anchor="start" x="390.28" y="-15.4" font-family="sans-serif" font-size="14.00"> &#160;Bootstrap</text>
<polygon fill="#fdb462" stroke="transparent" points="463.5,-10 463.5,-30 483.5,-30 483.5,-10 463.5,-10"/>
<text text-anchor="start" x="487.17" y="-15.4" font-family="sans-serif" font-size="14.00"> &#160;Providers</text>
<polygon fill="#fb8072" stroke="transparent" points="559.5,-10 559.5,-30 579.5,-30 579.5,-10 559.5,-10"/>
<text text-anchor="start" x="583.23" y="-15.4" font-family="sans-serif" font-size="14.00"> &#160;Exports</text>
<g id="clust1" class="cluster">
<title>cluster_AuthModule</title>
<polygon fill="none" stroke="black" stroke-dasharray="1,5" points="8,-70 8,-268 795,-268 795,-70 8,-70"/>
</g>
<g id="clust6" class="cluster">
<title>cluster_AuthModule_providers</title>
<polygon fill="none" stroke="black" points="132,-78 132,-130 787,-130 787,-78 132,-78"/>
</g>
<g id="clust3" class="cluster">
<title>cluster_AuthModule_imports</title>
<polygon fill="none" stroke="black" points="16,-78 16,-130 124,-130 124,-78 16,-78"/>
</g>
<g id="clust4" class="cluster">
<title>cluster_AuthModule_exports</title>
<polygon fill="none" stroke="black" points="292,-208 292,-260 398,-260 398,-208 292,-208"/>
</g>
<!-- UsersModule -->
<g id="node1" class="node">
<title>UsersModule</title>
<polygon fill="#8dd3c7" stroke="black" points="115.92,-122 112.92,-126 91.92,-126 88.92,-122 24.08,-122 24.08,-86 115.92,-86 115.92,-122"/>
<text text-anchor="middle" x="70" y="-99.8" font-family="Times,serif" font-size="14.00">UsersModule</text>
</g>
<!-- AuthModule -->
<g id="node2" class="node">
<title>AuthModule</title>
<polygon fill="#8dd3c7" stroke="black" points="388.55,-187 385.55,-191 364.55,-191 361.55,-187 301.45,-187 301.45,-151 388.55,-151 388.55,-187"/>
<text text-anchor="middle" x="345" y="-164.8" font-family="Times,serif" font-size="14.00">AuthModule</text>
</g>
<!-- UsersModule&#45;&gt;AuthModule -->
<g id="edge1" class="edge">
<title>UsersModule&#45;&gt;AuthModule</title>
<path fill="none" stroke="black" d="M70,-122.28C70,-143.32 70,-175 70,-175 70,-175 291.43,-175 291.43,-175"/>
<polygon fill="black" stroke="black" points="291.43,-178.5 301.43,-175 291.43,-171.5 291.43,-178.5"/>
</g>
<!-- AuthService  -->
<g id="node3" class="node">
<title>AuthService </title>
<polygon fill="#fb8072" stroke="black" points="389.98,-252 300.02,-252 300.02,-216 389.98,-216 389.98,-252"/>
<text text-anchor="middle" x="345" y="-229.8" font-family="Times,serif" font-size="14.00">AuthService </text>
</g>
<!-- AuthModule&#45;&gt;AuthService  -->
<g id="edge2" class="edge">
<title>AuthModule&#45;&gt;AuthService </title>
<path fill="none" stroke="black" stroke-dasharray="5,2" d="M345,-187.11C345,-187.11 345,-205.99 345,-205.99"/>
<polygon fill="black" stroke="black" points="341.5,-205.99 345,-215.99 348.5,-205.99 341.5,-205.99"/>
</g>
<!-- AuthService -->
<g id="node4" class="node">
<title>AuthService</title>
<ellipse fill="#fdb462" stroke="black" cx="720" cy="-104" rx="59.11" ry="18"/>
<text text-anchor="middle" x="720" y="-99.8" font-family="Times,serif" font-size="14.00">AuthService</text>
</g>
<!-- AuthService&#45;&gt;AuthModule -->
<g id="edge3" class="edge">
<title>AuthService&#45;&gt;AuthModule</title>
<path fill="none" stroke="black" d="M720,-122.28C720,-143.32 720,-175 720,-175 720,-175 398.75,-175 398.75,-175"/>
<polygon fill="black" stroke="black" points="398.75,-171.5 388.75,-175 398.75,-178.5 398.75,-171.5"/>
</g>
<!-- JwtRefreshTokenStrategy -->
<g id="node5" class="node">
<title>JwtRefreshTokenStrategy</title>
<ellipse fill="#fdb462" stroke="black" cx="531" cy="-104" rx="111.15" ry="18"/>
<text text-anchor="middle" x="531" y="-99.8" font-family="Times,serif" font-size="14.00">JwtRefreshTokenStrategy</text>
</g>
<!-- JwtRefreshTokenStrategy&#45;&gt;AuthModule -->
<g id="edge4" class="edge">
<title>JwtRefreshTokenStrategy&#45;&gt;AuthModule</title>
<path fill="none" stroke="black" d="M531,-122.02C531,-139.37 531,-163 531,-163 531,-163 398.61,-163 398.61,-163"/>
<polygon fill="black" stroke="black" points="398.61,-159.5 388.61,-163 398.61,-166.5 398.61,-159.5"/>
</g>
<!-- JwtStrategy -->
<g id="node6" class="node">
<title>JwtStrategy</title>
<ellipse fill="#fdb462" stroke="black" cx="345" cy="-104" rx="56.76" ry="18"/>
<text text-anchor="middle" x="345" y="-99.8" font-family="Times,serif" font-size="14.00">JwtStrategy</text>
</g>
<!-- JwtStrategy&#45;&gt;AuthModule -->
<g id="edge5" class="edge">
<title>JwtStrategy&#45;&gt;AuthModule</title>
<path fill="none" stroke="black" d="M345,-122.11C345,-122.11 345,-140.99 345,-140.99"/>
<polygon fill="black" stroke="black" points="341.5,-140.99 345,-150.99 348.5,-140.99 341.5,-140.99"/>
</g>
<!-- LocalStrategy -->
<g id="node7" class="node">
<title>LocalStrategy</title>
<ellipse fill="#fdb462" stroke="black" cx="205" cy="-104" rx="65.41" ry="18"/>
<text text-anchor="middle" x="205" y="-99.8" font-family="Times,serif" font-size="14.00">LocalStrategy</text>
</g>
<!-- LocalStrategy&#45;&gt;AuthModule -->
<g id="edge6" class="edge">
<title>LocalStrategy&#45;&gt;AuthModule</title>
<path fill="none" stroke="black" d="M205,-122.02C205,-139.37 205,-163 205,-163 205,-163 291.09,-163 291.09,-163"/>
<polygon fill="black" stroke="black" points="291.09,-166.5 301.09,-163 291.09,-159.5 291.09,-166.5"/>
</g>
</g>
</svg>
